<svg version="1.1" viewBox="0 0 96 96" xmlns="http://www.w3.org/2000/svg" xmlns:xlink="http://www.w3.org/1999/xlink" id="Icons_ClapperBoard" overflow="hidden"><style>
.MsftOfcThm_Background1_Fill {
 fill:#FFFFFF; 
}
</style>
<path d=" M 30.5 38 L 88.1 27.8 L 85.3 12 L 6.6 26 L 9.2 40.7 L 9.4 80 C 9.4 82.2 11.2 84 13.4 84 L 85.4 84 C 87.6 84 89.4 82.2 89.4 80 L 89.4 38 L 30.5 38 Z M 75.4 17.8 L 82.1 16.6 L 82.3 17.8 L 76.8 25.6 L 69 27.1 L 75.4 17.8 Z M 59.2 20.7 L 67.1 19.3 L 60.6 28.6 L 52.7 30 L 59.2 20.7 Z M 42.9 23.6 L 50.8 22.2 L 44.3 31.5 L 36.4 32.9 L 42.9 23.6 Z M 26.7 26.5 L 34.6 25.1 L 28.1 34.4 L 20.2 35.8 L 26.7 26.5 Z M 18.3 28 L 12.5 36.3 L 11.2 29.2 L 18.3 28 Z M 73.4 63 L 25.4 63 L 25.4 51 L 73.4 51 L 73.4 63 Z" class="MsftOfcThm_Background1_Fill" stroke="none" stroke-width="3" stroke-dasharray="" stroke-dashoffset="1" stroke-opacity="1" fill="#FFFFFF" fill-opacity="1"/></svg>