<svg version="1.1" viewBox="0 0 96 96" xmlns="http://www.w3.org/2000/svg" xmlns:xlink="http://www.w3.org/1999/xlink" id="Icons_Astronaut" overflow="hidden"><style>
.MsftOfcThm_Background1_Fill {
 fill:#FFFFFF; 
}
</style>
<path d=" M 69 24.5 L 69 24.5 C 69.6726 26.6007 70.0101 28.7943 70 31 L 70 39 C 70.0576 44.0579 68.1045 48.9316 64.57 52.55 C 69.6851 53.9394 74.5532 56.1153 79 59 L 79 34.5 C 79 28.9772 74.5229 24.5 69 24.5 Z" class="MsftOfcThm_Background1_Fill" stroke="none" stroke-width="1" stroke-dasharray="" stroke-dashoffset="1" fill="#FFFFFF" fill-opacity="1"/><path d=" M 26 39 L 26 31 C 25.9899 28.7943 26.3274 26.6007 27 24.5 L 27 24.5 C 21.4772 24.5 17 28.9772 17 34.5 L 17 59.06 C 21.5111 56.2763 26.3652 54.0913 31.44 52.56 C 27.8918 48.9457 25.9335 44.0644 26 39 Z" class="MsftOfcThm_Background1_Fill" stroke="none" stroke-width="1" stroke-dasharray="" stroke-dashoffset="1" fill="#FFFFFF" fill-opacity="1"/><path d=" M 48 12 C 37 12 28 20 28 31 L 28 39 C 28 50 37 57 48 57 C 59 57 68 50 68 39 L 68 31 C 68 20 59.05 12 48 12 Z M 64.5 38.19 C 64.4931 39.1348 64.3893 40.0764 64.19 41 C 64.0046 42.0297 63.7061 43.0358 63.3 44 L 56.89 44 C 56.5349 43.3849 55.8802 43.0043 55.17 43 L 53.17 43 C 52.0654 43 51.17 43.8954 51.17 45 C 51.17 46.1046 52.0654 47 53.17 47 L 55.17 47 C 55.8802 46.9957 56.5349 46.6151 56.89 46 L 62.28 46 C 59.2676 50.6461 54.0766 53.4154 48.54 53.33 L 48 53.33 L 47.47 53.33 C 40.14 53.33 33.22 48.65 31.82 41.03 C 31.6596 40.0904 31.556 39.142 31.51 38.19 L 31.51 35.09 C 31.51 34.88 31.51 34.69 31.51 34.49 C 31.18 23 38.18 23.71 48 23.71 C 57.82 23.71 64.83 23 64.48 34.49 C 64.48 34.69 64.48 34.88 64.48 35.09 Z" class="MsftOfcThm_Background1_Fill" stroke="none" stroke-width="1" stroke-dasharray="" stroke-dashoffset="1" fill="#FFFFFF" fill-opacity="1"/><path d=" M 83.29 68 C 82.8042 65.4414 81.3769 63.1579 79.29 61.6 C 74.64 58.1 68.75 55.74 62.84 54.14 C 58.5927 57.4056 53.3563 59.1205 48 59 C 42.6536 59.1161 37.4281 57.4013 33.19 54.14 C 27.3467 55.75 21.7925 58.2673 16.73 61.6 C 14.599 63.1169 13.1597 65.4198 12.73 68 L 11 82 L 85 82 Z M 64.07 76.25 C 63.1063 76.2457 62.1697 75.93 61.4 75.35 C 62.53 75 63.73 74.54 65 74 C 66.27 73.46 67.49 72.88 68.56 72.3 C 68.2685 74.5579 66.3466 76.2486 64.07 76.25 Z M 64.69 72.93 C 62.2141 74.0878 59.5661 74.8342 56.85 75.14 C 56.29 75.14 55.93 75.03 55.85 74.8 C 55.61 74.18 57.13 72.91 59.6 71.56 C 59.5894 71.4569 59.5894 71.3531 59.6 71.25 C 59.5612 68.7374 61.5667 66.6691 64.0793 66.6304 C 64.0895 66.6302 64.0998 66.6301 64.11 66.63 C 65.4387 66.627 66.6983 67.2219 67.54 68.25 C 68.7486 67.841 70.0064 67.5955 71.28 67.52 C 71.84 67.52 72.28 67.52 72.39 67.78 C 72.71 68.67 69.23 71 64.69 72.93 Z" class="MsftOfcThm_Background1_Fill" stroke="none" stroke-width="1" stroke-dasharray="" stroke-dashoffset="1" fill="#FFFFFF" fill-opacity="1"/></svg>